<?xml version="1.0" encoding="UTF-8" standalone="no"?>
<!-- Generator: Adobe Illustrator 17.0.0, SVG Export Plug-In . SVG Version: 6.00 Build 0)  -->

<svg
   xmlns:dc="http://purl.org/dc/elements/1.1/"
   xmlns:cc="http://creativecommons.org/ns#"
   xmlns:rdf="http://www.w3.org/1999/02/22-rdf-syntax-ns#"
   xmlns:svg="http://www.w3.org/2000/svg"
   xmlns="http://www.w3.org/2000/svg"
   xmlns:sodipodi="http://sodipodi.sourceforge.net/DTD/sodipodi-0.dtd"
   xmlns:inkscape="http://www.inkscape.org/namespaces/inkscape"
   version="1.1"
   id="Capa_1"
   x="0px"
   y="0px"
   width="64px"
   height="64px"
   viewBox="0 0 64 64"
   style="enable-background:new 0 0 64 64;"
   xml:space="preserve"
   inkscape:version="0.48.2 r9819"
   sodipodi:docname="icon.svg"><metadata
   id="metadata11"><rdf:RDF><cc:Work
       rdf:about=""><dc:format>image/svg+xml</dc:format><dc:type
         rdf:resource="http://purl.org/dc/dcmitype/StillImage" /><dc:title /></cc:Work></rdf:RDF></metadata><defs
   id="defs9" /><sodipodi:namedview
   pagecolor="#ffffff"
   bordercolor="#666666"
   borderopacity="1"
   objecttolerance="10"
   gridtolerance="10"
   guidetolerance="10"
   inkscape:pageopacity="0"
   inkscape:pageshadow="2"
   inkscape:window-width="1385"
   inkscape:window-height="909"
   id="namedview7"
   showgrid="false"
   inkscape:zoom="3.6875"
   inkscape:cx="32"
   inkscape:cy="32"
   inkscape:window-x="0"
   inkscape:window-y="0"
   inkscape:window-maximized="0"
   inkscape:current-layer="Capa_1" />
<g
   id="g2984"
   transform="matrix(1,0,0,1.1139723,0,-4.6824924)"><rect
     ry="9.4915257"
     y="5.6949153"
     x="1.8983051"
     height="54.237289"
     width="60.745762"
     id="rect2988"
     style="fill:#c87137;fill-rule:evenodd;stroke:#800000;stroke-width:1px;stroke-linecap:butt;stroke-linejoin:miter;stroke-opacity:1" /><g
     id="g3">
	<path
   id="path5"
   d="M 53.398,9.328 H 53.084 V 36.66 c 0,1.657 -0.858,3 -1.917,3 -1.059,0 -1.917,-1.343 -1.917,-3 V 9.328 h -18.5 v 5.589 h 9.374 c 1.657,0 3,0.858 3,1.917 0,1.059 -1.343,1.917 -3,1.917 H 30.75 v 4.083 c 0,1.657 -0.858,3 -1.917,3 -1.059,0 -1.917,-1.343 -1.917,-3 V 9.328 H 10.102 c -3.368,0 -6.098,2.729 -6.098,6.098 v 4.908 h 16.662 c 1.657,0 3,0.858 3,1.917 0,1.059 -1.343,1.917 -3,1.917 H 4.005 V 32.5 h 25.828 c 1.657,0 3,0.858 3,1.917 0,1.059 -1.343,1.917 -3,1.917 H 4.005 v 13.24 c 0,3.368 2.729,6.098 6.098,6.098 h 0.648 V 42.661 c 0,-1.657 0.858,-3 1.917,-3 1.059,0 1.917,1.343 1.917,3 v 3.088 H 29.33 c 1.657,0 3,0.858 3,1.917 0,1.059 -1.343,1.917 -3,1.917 H 14.584 v 6.089 H 38.417 V 32.989 c 0,-2.209 0.858,-4 1.917,-4 1.059,0 1.917,1.791 1.917,4 v 22.683 h 11.147 c 3.368,0 6.098,-2.729 6.098,-6.098 V 47.666 H 48.501 c -1.657,0 -3,-0.858 -3,-1.917 0,-1.059 1.343,-1.917 3,-1.917 H 59.495 V 15.426 c 0,-3.368 -2.729,-6.098 -6.097,-6.098 z m -14.75,18.61 c -0.818,0 -1.481,0 -1.481,0 V 41.5 c 0,0.828 -0.672,1.5 -1.5,1.5 H 19.501 c -0.828,0 -1.5,-0.672 -1.5,-1.5 0,-0.828 0.672,-1.5 1.5,-1.5 H 34.167 V 27.938 H 32.66 c -0.831,0 -0.834,-1.163 -0.006,-2.598 l 1.488,-2.576 c 0.828,-1.435 2.172,-1.435 3,0.001 l 1.486,2.574 c 0.829,1.436 0.838,2.599 0.02,2.599 z"
   inkscape:connector-curvature="0" />
</g></g>
</svg>