<?xml version="1.0" encoding="UTF-8" standalone="no"?>
<svg
   xmlns:dc="http://purl.org/dc/elements/1.1/"
   xmlns:cc="http://creativecommons.org/ns#"
   xmlns:rdf="http://www.w3.org/1999/02/22-rdf-syntax-ns#"
   xmlns:svg="http://www.w3.org/2000/svg"
   xmlns="http://www.w3.org/2000/svg"
   xmlns:sodipodi="http://sodipodi.sourceforge.net/DTD/sodipodi-0.dtd"
   xmlns:inkscape="http://www.inkscape.org/namespaces/inkscape"
   viewBox="0 0 512 512"
   id="svg2"
   version="1.1"
   inkscape:version="0.48.2 r9819"
   width="100%"
   height="100%"
   sodipodi:docname="icon.svg"
   inkscape:export-filename="/Users/paulrobson/Desktop/icon.png"
   inkscape:export-xdpi="208.00526"
   inkscape:export-ydpi="208.00526">
  <metadata
     id="metadata32">
    <rdf:RDF>
      <cc:Work
         rdf:about="">
        <dc:format>image/svg+xml</dc:format>
        <dc:type
           rdf:resource="http://purl.org/dc/dcmitype/StillImage" />
        <dc:title></dc:title>
      </cc:Work>
    </rdf:RDF>
  </metadata>
  <defs
     id="defs30" />
  <sodipodi:namedview
     pagecolor="#ffffff"
     bordercolor="#666666"
     borderopacity="1"
     objecttolerance="10"
     gridtolerance="10"
     guidetolerance="10"
     inkscape:pageopacity="0"
     inkscape:pageshadow="2"
     inkscape:window-width="1202"
     inkscape:window-height="905"
     id="namedview28"
     showgrid="false"
     inkscape:zoom="1.159024"
     inkscape:cx="144.85326"
     inkscape:cy="286.57783"
     inkscape:window-x="0"
     inkscape:window-y="0"
     inkscape:window-maximized="0"
     inkscape:current-layer="svg2" />
  <rect
     style="fill:#ffff00;stroke:#000000;stroke-width:3.72734475;stroke-opacity:1"
     id="rect3029"
     width="439.1626"
     height="470.48563"
     x="42.276951"
     y="19.081718"
     ry="86.411804" />
  <rect
     style="fill:#000000;fill-opacity:1;stroke:none"
     id="rect3017"
     width="411.55313"
     height="447.79056"
     x="56.081684"
     y="30.429253"
     ry="73.61541" />
  <path
     style="fill:#ffffff"
     inkscape:connector-curvature="0"
     id="path8"
     d="m 169.54497,331.53186 c 0,14.74768 -13.76788,26.70259 -30.75206,26.70259 -16.98418,0 -30.75206,-11.95491 -30.75206,-26.70259 0,-14.74768 13.76788,-26.70259 30.75206,-26.70259 16.98418,0 30.75206,11.95491 30.75206,26.70259 z" />
  <path
     style="fill:#ffffff"
     inkscape:connector-curvature="0"
     id="path10"
     d="M 263.57096,99.734352 450.89968,290.25823 280.73642,423.98538 76.240369,290.25823 z" />
  <path
     style="fill:#ffffff"
     inkscape:connector-curvature="0"
     id="path12"
     d="m 357.28409,331.53099 c 0,14.74768 13.76788,26.70259 30.75206,26.70259 16.98418,0 30.75206,-11.95491 30.75206,-26.70259 0,-14.74768 -13.76788,-26.70259 -30.75206,-26.70259 -16.98418,0 -30.75206,11.95491 -30.75206,26.70259 z" />
  <path
     style="fill:#ffffff;stroke:#000000;stroke-width:17.25774765"
     inkscape:connector-curvature="0"
     id="path14"
     d="M 240.43263,68.17321 125.74455,467.37198 H 399.96769 L 285.27961,68.17321 h -44.84885 z" />
  <path
     style="fill:#ffffff"
     inkscape:connector-curvature="0"
     id="path16"
     d="m 234.48966,124.73791 -64.27937,80.08828 91.52545,37.62054 92.01509,-37.62054 -64.27002,-80.08828 z" />
  <path
     inkscape:connector-curvature="0"
     id="path18"
     d="M 255.26388,100.94818 230.15017,472.66181 H 295.5602 L 270.44649,100.94818 h -15.18447 z" />
  <path
     style="fill:#ffffff;stroke:#000000;stroke-width:17.41469383"
     inkscape:connector-curvature="0"
     id="path20"
     d="M 227.43659,59.812728 146.66455,160.44846 261.6722,207.7212 377.2947,160.44846 296.53574,59.812728 c -22.32724,-19.176205 -46.06735,-17.227265 -69.10102,0 z" />
  <path
     inkscape:connector-curvature="0"
     id="path22"
     d="m 320.81221,161.40913 -58.89145,46.34291 -58.89146,-46.34291 c 49.39766,-89.302339 72.00523,-87.692557 117.78104,0 z" />
  <path
     style="fill:none;stroke:#000000;stroke-width:17.41469383"
     inkscape:connector-curvature="0"
     id="path24"
     d="m 83.953146,308.63117 82.982904,16.49378" />
  <path
     style="fill:none;stroke:#000000;stroke-width:17.41469383"
     inkscape:connector-curvature="0"
     id="path26"
     d="m 442.87667,308.63117 -82.9829,16.49378" />
</svg>
