<?xml version="1.0" encoding="UTF-8" standalone="no"?>
<svg
   xmlns:dc="http://purl.org/dc/elements/1.1/"
   xmlns:cc="http://creativecommons.org/ns#"
   xmlns:rdf="http://www.w3.org/1999/02/22-rdf-syntax-ns#"
   xmlns:svg="http://www.w3.org/2000/svg"
   xmlns="http://www.w3.org/2000/svg"
   xmlns:sodipodi="http://sodipodi.sourceforge.net/DTD/sodipodi-0.dtd"
   xmlns:inkscape="http://www.inkscape.org/namespaces/inkscape"
   viewBox="0 0 512 512"
   id="svg2"
   version="1.1"
   inkscape:version="0.48.2 r9819"
   width="100%"
   height="100%"
   sodipodi:docname="icon.svg">
  <metadata
     id="metadata32">
    <rdf:RDF>
      <cc:Work
         rdf:about="">
        <dc:format>image/svg+xml</dc:format>
        <dc:type
           rdf:resource="http://purl.org/dc/dcmitype/StillImage" />
      </cc:Work>
    </rdf:RDF>
  </metadata>
  <defs
     id="defs30" />
  <sodipodi:namedview
     pagecolor="#ffffff"
     bordercolor="#666666"
     borderopacity="1"
     objecttolerance="10"
     gridtolerance="10"
     guidetolerance="10"
     inkscape:pageopacity="0"
     inkscape:pageshadow="2"
     inkscape:window-width="1202"
     inkscape:window-height="905"
     id="namedview28"
     showgrid="false"
     inkscape:zoom="1.159024"
     inkscape:cx="287.64582"
     inkscape:cy="286.57783"
     inkscape:window-x="0"
     inkscape:window-y="0"
     inkscape:window-maximized="0"
     inkscape:current-layer="svg2" />
  <g
     id="g3031"
     transform="matrix(1,0,0,0.86831866,6.9023592,37.496368)">
    <rect
       ry="44.866116"
       y="-21.207249"
       x="35.374592"
       height="541.83521"
       width="439.1626"
       id="rect3029"
       style="fill:#ffff00;stroke:#000000;stroke-width:4;stroke-opacity:1" />
    <path
       inkscape:connector-curvature="0"
       id="path4"
       d="M 56.944463,0.8627951 H 455.91833 V 505.09764 H 56.944463 z" />
    <path
       d="m 162.64261,338.62625 c 0,16.98418 -13.76788,30.75206 -30.75206,30.75206 -16.98418,0 -30.75206,-13.76788 -30.75206,-30.75206 0,-16.98418 13.76788,-30.75206 30.75206,-30.75206 16.98418,0 30.75206,13.76788 30.75206,30.75206 z"
       id="path8"
       inkscape:connector-curvature="0"
       style="fill:#ffffff" />
    <path
       d="M 256.6686,71.676433 443.99732,291.09344 273.83406,445.10043 69.33801,291.09344 z"
       id="path10"
       inkscape:connector-curvature="0"
       style="fill:#ffffff" />
    <path
       d="m 350.38173,338.62525 c 0,16.98418 13.76788,30.75206 30.75206,30.75206 16.98418,0 30.75206,-13.76788 30.75206,-30.75206 0,-16.98418 -13.76788,-30.75206 -30.75206,-30.75206 -16.98418,0 -30.75206,13.76788 -30.75206,30.75206 z"
       id="path12"
       inkscape:connector-curvature="0"
       style="fill:#ffffff" />
    <path
       d="M 233.53027,35.329014 118.84219,495.06665 H 393.06533 L 278.37725,35.329014 H 233.5284 z"
       id="path14"
       inkscape:connector-curvature="0"
       style="fill:#ffffff;stroke:#000000;stroke-width:18.52015114" />
    <path
       d="m 227.5873,100.4718 -64.27937,92.23375 91.52545,43.32573 92.01509,-43.32573 -64.27002,-92.23375 z"
       id="path16"
       inkscape:connector-curvature="0"
       style="fill:#ffffff" />
    <path
       d="M 248.36152,73.074339 223.24781,501.15869 h 65.41003 L 263.54413,73.074339 h -15.18447 z"
       id="path18"
       inkscape:connector-curvature="0" />
    <path
       d="m 220.53423,25.700657 -80.77204,115.897233 115.00765,54.4417 115.6225,-54.4417 -80.75896,-115.897233 c -22.32724,-22.0842946 -46.06735,-19.8397962 -69.10102,0 z"
       id="path20"
       inkscape:connector-curvature="0"
       style="fill:#ffffff;stroke:#000000;stroke-width:18.68857956" />
    <path
       d="M 313.90985,142.70425 255.0184,196.0751 196.12694,142.70425 c 49.39766,-102.845124 72.00523,-100.991217 117.78104,0 z"
       id="path22"
       inkscape:connector-curvature="0" />
    <path
       d="m 77.050787,312.25265 82.982903,18.99508"
       id="path24"
       inkscape:connector-curvature="0"
       style="fill:none;stroke:#000000;stroke-width:18.68857956" />
    <path
       d="m 435.97431,312.25265 -82.9829,18.99508"
       id="path26"
       inkscape:connector-curvature="0"
       style="fill:none;stroke:#000000;stroke-width:18.68857956" />
  </g>
</svg>
